<mxfile host="65bd71144e">
    <diagram id="PSwkkRA805_FCD7kwvl0" name="Page-1">
        <mxGraphModel dx="1091" dy="862" grid="1" gridSize="10" guides="1" tooltips="1" connect="1" arrows="1" fold="1" page="1" pageScale="1" pageWidth="827" pageHeight="1169" background="#ffffff" math="0" shadow="0">
            <root>
                <mxCell id="0"/>
                <mxCell id="1" parent="0"/>
                <mxCell id="wMrmKSV0DdAB6P1zYzrE-1" value="FastAPI Application" style="rounded=0;whiteSpace=wrap;html=1;strokeWidth=2;fillColor=#f0a30a;fontColor=#000000;strokeColor=#BD7000;" parent="1" vertex="1">
                    <mxGeometry x="20" y="170" width="190" height="70" as="geometry"/>
                </mxCell>
                <mxCell id="4" style="edgeStyle=none;html=1;exitX=1;exitY=0.5;exitDx=0;exitDy=0;fontColor=#000000;strokeColor=#000000;" edge="1" parent="1" source="wMrmKSV0DdAB6P1zYzrE-3" target="wMrmKSV0DdAB6P1zYzrE-4">
                    <mxGeometry relative="1" as="geometry"/>
                </mxCell>
                <mxCell id="wMrmKSV0DdAB6P1zYzrE-3" value="OpenTelemetry&lt;br&gt;API and SDK" style="rounded=0;whiteSpace=wrap;html=1;strokeWidth=2;fillColor=#cce5ff;strokeColor=#000000;fontColor=#000000;" parent="1" vertex="1">
                    <mxGeometry x="42.5" y="220" width="145" height="60" as="geometry"/>
                </mxCell>
                <mxCell id="13" style="edgeStyle=orthogonalEdgeStyle;html=1;exitX=0.5;exitY=1;exitDx=0;exitDy=0;entryX=0;entryY=0.5;entryDx=0;entryDy=0;rounded=0;fontColor=#000000;strokeColor=#000000;" edge="1" parent="1" source="wMrmKSV0DdAB6P1zYzrE-4" target="wMrmKSV0DdAB6P1zYzrE-5">
                    <mxGeometry relative="1" as="geometry"/>
                </mxCell>
                <mxCell id="wMrmKSV0DdAB6P1zYzrE-4" value="otel-collector" style="rounded=0;whiteSpace=wrap;html=1;strokeWidth=2;fillColor=#cce5ff;strokeColor=#000000;fontColor=#000000;" parent="1" vertex="1">
                    <mxGeometry x="319" y="220" width="120" height="60" as="geometry"/>
                </mxCell>
                <mxCell id="wMrmKSV0DdAB6P1zYzrE-5" value="jaeger-collector" style="rounded=0;whiteSpace=wrap;html=1;strokeWidth=2;fillColor=#cce5ff;strokeColor=#000000;fontColor=#000000;" parent="1" vertex="1">
                    <mxGeometry x="430" y="320" width="120" height="60" as="geometry"/>
                </mxCell>
                <mxCell id="wMrmKSV0DdAB6P1zYzrE-6" value="&lt;br&gt;DB&lt;br&gt;(Casandra)" style="strokeWidth=2;html=1;shape=mxgraph.flowchart.database;whiteSpace=wrap;fillColor=#cce5ff;strokeColor=#000000;fontColor=#000000;" parent="1" vertex="1">
                    <mxGeometry x="580" y="320" width="90" height="60" as="geometry"/>
                </mxCell>
                <mxCell id="7" style="edgeStyle=orthogonalEdgeStyle;html=1;exitX=0;exitY=0.5;exitDx=0;exitDy=0;entryX=1;entryY=0.5;entryDx=0;entryDy=0;rounded=0;fontColor=#000000;strokeColor=#000000;" edge="1" parent="1" source="wMrmKSV0DdAB6P1zYzrE-9" target="6">
                    <mxGeometry relative="1" as="geometry"/>
                </mxCell>
                <mxCell id="8" style="edgeStyle=orthogonalEdgeStyle;html=1;exitX=0;exitY=0.5;exitDx=0;exitDy=0;entryX=1;entryY=0.5;entryDx=0;entryDy=0;entryPerimeter=0;rounded=0;fontColor=#000000;strokeColor=#000000;" edge="1" parent="1" source="wMrmKSV0DdAB6P1zYzrE-9" target="wMrmKSV0DdAB6P1zYzrE-6">
                    <mxGeometry relative="1" as="geometry"/>
                </mxCell>
                <mxCell id="wMrmKSV0DdAB6P1zYzrE-9" value="jaeger-query" style="rounded=0;whiteSpace=wrap;html=1;strokeWidth=2;fillColor=#cce5ff;strokeColor=#000000;fontColor=#000000;" parent="1" vertex="1">
                    <mxGeometry x="750" y="220" width="120" height="60" as="geometry"/>
                </mxCell>
                <mxCell id="wMrmKSV0DdAB6P1zYzrE-10" value="" style="endArrow=classic;html=1;rounded=0;exitX=1;exitY=0.5;exitDx=0;exitDy=0;entryX=0;entryY=0.5;entryDx=0;entryDy=0;entryPerimeter=0;fontColor=#000000;strokeColor=#000000;" parent="1" source="wMrmKSV0DdAB6P1zYzrE-5" target="wMrmKSV0DdAB6P1zYzrE-6" edge="1">
                    <mxGeometry width="50" height="50" relative="1" as="geometry">
                        <mxPoint x="440" y="460" as="sourcePoint"/>
                        <mxPoint x="490" y="410" as="targetPoint"/>
                    </mxGeometry>
                </mxCell>
                <mxCell id="wMrmKSV0DdAB6P1zYzrE-16" value="gRPC" style="text;html=1;resizable=0;autosize=1;align=center;verticalAlign=middle;points=[];fillColor=none;strokeColor=none;rounded=0;fontColor=#000000;" parent="1" vertex="1">
                    <mxGeometry x="240" y="220" width="60" height="30" as="geometry"/>
                </mxCell>
                <mxCell id="wMrmKSV0DdAB6P1zYzrE-18" value="Push with HTTP/gRPC" style="text;html=1;resizable=0;autosize=1;align=center;verticalAlign=middle;points=[];fillColor=none;strokeColor=none;rounded=0;fontColor=#000000;" parent="1" vertex="1">
                    <mxGeometry x="280" y="350" width="150" height="30" as="geometry"/>
                </mxCell>
                <mxCell id="wMrmKSV0DdAB6P1zYzrE-19" value="A" style="ellipse;whiteSpace=wrap;html=1;strokeWidth=2;fontColor=#000000;strokeColor=#000000;fillColor=none;" parent="1" vertex="1">
                    <mxGeometry x="228.5" y="225" width="20" height="20" as="geometry"/>
                </mxCell>
                <mxCell id="2" value="HTTP (Protobuf)" style="text;html=1;resizable=0;autosize=1;align=center;verticalAlign=middle;points=[];fillColor=none;strokeColor=none;rounded=0;fontColor=#000000;" parent="1" vertex="1">
                    <mxGeometry x="209" y="250" width="110" height="30" as="geometry"/>
                </mxCell>
                <mxCell id="3" value="B" style="ellipse;whiteSpace=wrap;html=1;strokeWidth=2;fontColor=#000000;strokeColor=#000000;fillColor=none;" parent="1" vertex="1">
                    <mxGeometry x="195" y="255" width="20" height="20" as="geometry"/>
                </mxCell>
                <mxCell id="11" style="edgeStyle=orthogonalEdgeStyle;html=1;exitX=0;exitY=0.5;exitDx=0;exitDy=0;entryX=0.5;entryY=0;entryDx=0;entryDy=0;jumpStyle=none;rounded=0;fontColor=#000000;strokeColor=#000000;" edge="1" parent="1" source="6" target="wMrmKSV0DdAB6P1zYzrE-4">
                    <mxGeometry relative="1" as="geometry"/>
                </mxCell>
                <mxCell id="6" value="prometheus" style="rounded=0;whiteSpace=wrap;html=1;strokeWidth=2;fillColor=#cce5ff;strokeColor=#000000;fontColor=#000000;" vertex="1" parent="1">
                    <mxGeometry x="430" y="100" width="120" height="60" as="geometry"/>
                </mxCell>
                <mxCell id="14" value="Scrape Metrics" style="text;html=1;resizable=0;autosize=1;align=center;verticalAlign=middle;points=[];fillColor=none;strokeColor=none;rounded=0;fontColor=#000000;" vertex="1" parent="1">
                    <mxGeometry x="329" y="100" width="100" height="30" as="geometry"/>
                </mxCell>
                <mxCell id="15" value="Query" style="text;html=1;resizable=0;autosize=1;align=center;verticalAlign=middle;points=[];fillColor=none;strokeColor=none;rounded=0;fontColor=#000000;" vertex="1" parent="1">
                    <mxGeometry x="680" y="220" width="60" height="30" as="geometry"/>
                </mxCell>
            </root>
        </mxGraphModel>
    </diagram>
</mxfile>
